<svg xmlns="http://www.w3.org/2000/svg" style="display: none;"><symbol id="linkedin" viewBox="0 0 512 512"><title>linkedin</title><path d="m256 0c-141.363281 0-256 114.636719-256 256s114.636719 256 256 256 256-114.636719 256-256-114.636719-256-256-256zm-74.390625 387h-62.347656v-187.574219h62.347656zm-31.171875-213.1875h-.40625c-20.921875 0-34.453125-14.402344-34.453125-32.402344 0-18.40625 13.945313-32.410156 35.273437-32.410156 21.328126 0 34.453126 14.003906 34.859376 32.410156 0 18-13.53125 32.402344-35.273438 32.402344zm255.984375 213.1875h-62.339844v-100.347656c0-25.21875-9.027343-42.417969-31.585937-42.417969-17.222656 0-27.480469 11.601563-31.988282 22.800781-1.648437 4.007813-2.050781 9.609375-2.050781 15.214844v104.75h-62.34375s.816407-169.976562 0-187.574219h62.34375v26.558594c8.285157-12.78125 23.109375-30.960937 56.1875-30.960937 41.019531 0 71.777344 26.808593 71.777344 84.421874zm0 0"/></symbol><symbol id="twitter" viewBox="0 0 512 512"><title>twitter</title><path d="m256 0c-141.363281 0-256 114.636719-256 256s114.636719 256 256 256 256-114.636719 256-256-114.636719-256-256-256zm116.886719 199.601562c.113281 2.519532.167969 5.050782.167969 7.59375 0 77.644532-59.101563 167.179688-167.183594 167.183594h.003906-.003906c-33.183594 0-64.0625-9.726562-90.066406-26.394531 4.597656.542969 9.277343.8125 14.015624.8125 27.53125 0 52.867188-9.390625 72.980469-25.152344-25.722656-.476562-47.410156-17.464843-54.894531-40.8125 3.582031.6875 7.265625 1.0625 11.042969 1.0625 5.363281 0 10.558593-.722656 15.496093-2.070312-26.886718-5.382813-47.140624-29.144531-47.140624-57.597657 0-.265624 0-.503906.007812-.75 7.917969 4.402344 16.972656 7.050782 26.613281 7.347657-15.777343-10.527344-26.148437-28.523438-26.148437-48.910157 0-10.765624 2.910156-20.851562 7.957031-29.535156 28.976563 35.554688 72.28125 58.9375 121.117187 61.394532-1.007812-4.304688-1.527343-8.789063-1.527343-13.398438 0-32.4375 26.316406-58.753906 58.765625-58.753906 16.902344 0 32.167968 7.144531 42.890625 18.566406 13.386719-2.640625 25.957031-7.53125 37.3125-14.261719-4.394531 13.714844-13.707031 25.222657-25.839844 32.5 11.886719-1.421875 23.214844-4.574219 33.742187-9.253906-7.863281 11.785156-17.835937 22.136719-29.308593 30.429687zm0 0"/></symbol><symbol id="facebook" viewBox="0 0 512 512"><title>facebook</title><path d="m512 256c0-141.4-114.6-256-256-256s-256 114.6-256 256 114.6 256 256 256c1.5 0 3 0 4.5-.1v-199.2h-55v-64.1h55v-47.2c0-54.7 33.4-84.5 82.2-84.5 23.4 0 43.5 1.7 49.3 2.5v57.2h-33.6c-26.5 0-31.7 12.6-31.7 31.1v40.8h63.5l-8.3 64.1h-55.2v189.5c107-30.7 185.3-129.2 185.3-246.1z"/></symbol><symbol id="my-business" viewBox="0 0 512 512"><title>my-business</title><path d="m482 198.864h-326l100 283.136h226z" fill="#4175df"/><path d="m30 198.864h226v283.136h-226z" fill="#4086f4"/><path d="m192 156.75 64 86.25c0 35.346 28.654 64 64 64s64-28.654 64-64l64-86.25z" fill="#609af6"/><path d="m384 156.75v86.25c0 35.346 28.654 64 64 64s64-28.654 64-64v-26.25z" fill="#23346d"/><path d="m64 156.75 64 86.25c0 35.346 28.654 64 64 64s64-28.654 64-64v-86.25z" fill="#324492"/><path d="m0 216.75v26.25c0 35.346 28.654 64 64 64s64-28.654 64-64v-86.25z" fill="#80aef8"/><path d="m65.24 30-65.24 186.75h128l64-93.375-31.38-93.375z" fill="#9fc2f9"/><path d="m512 216.75-65.24-186.75h-95.38l-31.38 93.375 64 93.375z" fill="#324492"/><path d="m351.38 30h-95.38l-64 93.375 64 93.375h128z" fill="#80aef8"/><path d="m160.62 30-32.62 186.75h128v-186.75z" fill="#4254b6"/></symbol><symbol id="facebook-1" viewBox="0 0 512 512"><title>facebook-1</title><path style="fill:#1976D2;" d="M448,0H64C28.704,0,0,28.704,0,64v384c0,35.296,28.704,64,64,64h384c35.296,0,64-28.704,64-64V64 C512,28.704,483.296,0,448,0z"/><path style="fill:#FAFAFA;" d="M432,256h-80v-64c0-17.664,14.336-16,32-16h32V96h-64l0,0c-53.024,0-96,42.976-96,96v64h-64v80h64 v176h96V336h48L432,256z"/></symbol><symbol id="yelp" viewBox="0 0 512 512"><title>yelp</title><circle style="fill:#BB0000;" cx="256" cy="256" r="256"/><path style="fill:#8E0A0A;" d="M315.292,505.084c80.518-19.096,146.308-76.212,177.371-151.347L336.567,197.641l-3.368,4.511 l-87.161-87.161l-14.984,132.646L337.506,354.09l-10.481,12.435l-96.173-96.173l-79.246,40.56l54.346,54.346l-15.522,14.96 L315.292,505.084z"/><g> <path style="fill:#FFFFFF;" d="M232.217,315.949l-40.52,49.342c-5.703,6.94-2.975,17.425,5.38,20.716l39.617,15.593 c8.547,3.363,17.836-2.786,18.079-11.966l1.708-64.638C256.826,311.967,240.488,305.874,232.217,315.949L232.217,315.949z"/> <path style="fill:#FFFFFF;" d="M225.483,266.895l-60.094-21.576c-8.456-3.036-17.415,3.055-17.701,12.035l-1.37,42.551 c-0.297,9.182,8.62,15.862,17.349,13.005l61.447-20.12C237.502,288.732,237.749,271.3,225.483,266.895L225.483,266.895z"/> </g><path style="fill:#D1D1D1;" d="M294.353,273.818l61.556-16.965c8.659-2.388,12.479-12.524,7.542-20.034l-23.385-35.575 c-5.046-7.673-16.181-8.004-21.669-0.64l-38.653,51.833C271.953,262.887,281.79,277.28,294.353,273.818L294.353,273.818z"/><path style="fill:#FFFFFF;" d="M249.777,125.902c0.49-10.645-9.542-18.677-19.823-15.869l-48.723,13.307 c-10.511,2.87-14.974,15.31-8.688,24.209l55.913,96.87c0.453,0.79,0.955,1.55,1.543,2.239c8.282,9.733,23.824,6.127,27.658-5.265 c0.686-2.046,0.881-4.229,0.714-6.378L249.777,125.902z"/><g> <path style="fill:#D1D1D1;" d="M356.33,318.1l-61.812-18.978c-12.459-3.827-22.711,10.278-15.224,20.947l36.671,52.269 c5.161,7.354,15.991,7.542,21.402,0.372l25.643-33.983C368.542,331.393,365.109,320.793,356.33,318.1L356.33,318.1z"/> <path style="fill:#D1D1D1;" d="M257.657,241.392c0.686-2.046,0.881-4.229,0.714-6.378l-8.594-109.111 c0.49-10.645-9.542-18.677-19.823-15.869l-26.679,7.285l42.858,134.456C251.271,250.508,255.817,246.86,257.657,241.392z"/> </g></symbol></svg>